<?xml version="1.0" encoding="utf-8"?>
<!DOCTYPE svg PUBLIC "-//W3C//DTD SVG 20010904//EN" "http://www.w3.org/TR/2001/REC-SVG-20010904/DTD/svg10.dtd">
<svg version="1.0" width="1500pt" height="498.75pt" viewBox="0 0 1500 498.75" preserveAspectRatio="xMidYMid meet" xmlns="http://www.w3.org/2000/svg">
  <g transform="translate(0,498.75)scale(.075,.075)" fill="#FFF0FF">
    <path id="path1" d="M 2170 -6634 c -555 76 -1043 318 -1440 714 -400 400 -641 890 -715 1453 -22 173 -23 2108 0 2281 51 392 194 775 407 1088 177 260 439 520 696 690 312 207 695 347 1077 393 117 15 879 16 7807 16 6760 -1 7693 -3 7803 -16 567 -68 1056 -307 1467 -718 400 -398 630 -868 712 -1449 22 -156 23 -2113 1 -2276 -79 -589 -309 -1057 -720 -1467 -399 -397 -888 -637 -1448 -710 -105 -13 -948 -15 -7830 -14 -6613 1 -7727 3 -7817 15 z " />
  </g>
</svg>