<?xml version="1.0" encoding="utf-8"?>
<!DOCTYPE svg PUBLIC "-//W3C//DTD SVG 20010904//EN" "http://www.w3.org/TR/2001/REC-SVG-20010904/DTD/svg10.dtd">
<svg version="1.0" width="1500pt" height="498.75pt" viewBox="0 0 1500 498.75" preserveAspectRatio="xMidYMid meet" xmlns="http://www.w3.org/2000/svg">
  <g transform="translate(0,498.75)scale(.075,.075)" fill="#FFF0FF">
    <path id="path1" d="M 1 -5512 c 1 1029 2 1127 15 1032 76 -555 318 -1044 714 -1440 396 -396 885 -638 1440 -714 95 -13 -3 -14 -1032 -15 l -1138 -1 1 1138 z M 17830 -6634 c 552 75 1041 317 1436 709 398 397 644 892 719 1450 11 88 13 -42 14 -1037 l 1 -1138 -1138 1 c -1029 1 -1127 2 -1032 15 z M 1 -1138 l -1 1138 1138 -1 c 1029 -1 1127 -2 1032 -15 -379 -52 -767 -198 -1070 -404 -255 -173 -507 -425 -680 -680 -206 -304 -352 -690 -404 -1070 -13 -95 -14 3 -15 1032 z M 19986 -2198 c -15 160 -74 403 -143 587 -176 469 -519 903 -943 1191 -303 206 -691 352 -1070 404 -95 13 3 14 1032 15 l 1138 1 0 -1135 c 0 -624 -2 -1135 -4 -1135 -2 0 -6 33 -10 72 z " />
  </g>
</svg>