<?xml version="1.0" encoding="utf-8"?>
<!DOCTYPE svg PUBLIC "-//W3C//DTD SVG 20010904//EN" "http://www.w3.org/TR/2001/REC-SVG-20010904/DTD/svg10.dtd">
<svg version="1.0" width="1500pt" height="1500pt" viewBox="0 0 1500 1500" preserveAspectRatio="xMidYMid meet" xmlns="http://www.w3.org/2000/svg">
  <g transform="translate(0,1500)scale(.075,.075)" fill="#FFF0FF">
    <path id="path1" d="M 9495 -19984 c -209 13 -509 39 -685 60 -1671 199 -3253 812 -4620 1789 -465 333 -826 641 -1256 1070 -455 454 -795 860 -1151 1373 -439 631 -791 1287 -1079 2014 -313 787 -536 1671 -629 2488 -57 505 -60 556 -60 1175 0 624 6 741 61 1207 139 1169 482 2303 1009 3333 433 848 939 1573 1580 2265 1337 1444 3047 2452 4955 2920 510 125 1074 214 1622 258 323 25 1200 25 1518 -1 1988 -160 3805 -859 5355 -2059 584 -453 1176 -1027 1606 -1560 510 -632 809 -1086 1161 -1758 541 -1036 902 -2213 1043 -3407 53 -453 60 -578 60 -1178 0 -602 -6 -731 -60 -1185 -206 -1750 -862 -3395 -1917 -4802 -1649 -2202 -4105 -3622 -6823 -3943 -423 -49 -561 -57 -1110 -60 -286 -1 -547 -1 -580 1 z " />
  </g>
</svg>